# AST/ASF file generated using VICON BodyLanguage
# -----------------------------------------------
:version 1.10
:name VICON
:units
  mass 1.0
  length 0.45
  angle deg
:documentation
   .ast/.asf automatically generated from VICON data using
   VICON BodyBuilder and BodyLanguage model FoxedUp or BRILLIANT.MOD
:root
   order TX TY TZ RX RY RZ
   axis XYZ
   position 0 0 0  
   orientation 0 0 0 
:bonedata
  begin
     id 1 
     name lhipjoint
     direction 0.623415 -0.642378 0.445763 
     length 2.49859 
     axis 0 0 0  XYZ
  end
  begin
     id 2 
     name lfemur
     direction 0.34202 -0.939693 0  
     length 6.69689  
     axis 0 0 20  XYZ
    dof rx ry rz
    limits (-160.0 20.0)
           (-70.0 70.0)
           (-60.0 70.0)
  end
  begin
     id 3 
     name ltibia
     direction 0.34202 -0.939693 0   
     length 7.37574   
     axis 0 0 20   XYZ
    dof rx
    limits (-10.0 170.0)
  end
  begin
     id 4 
     name lfoot
     direction 0.084323 -0.231675 0.969132   
     length 2.09111   
     axis -90 7.62852e-016 20   XYZ
    dof rx rz
    limits (-45.0 90.0)
           (-70.0 20.0)
  end
  begin
     id 5 
     name ltoes
     direction 1.5357e-011 -4.21957e-011 1   
     length 1.04989   
     axis -90 7.62852e-016 20   XYZ
    dof rx
    limits (-90.0 20.0)
  end
  begin
     id 6 
     name rhipjoint
     direction -0.605402 -0.653903 0.45376   
     length 2.45455  
     axis 0 0 0  XYZ 
  end
  begin
     id 7 
     name rfemur
     direction -0.34202 -0.939693 0   
     length 6.64523   
     axis 0 0 -20   XYZ
    dof rx ry rz
    limits (-160.0 20.0)
           (-70.0 70.0)
           (-70.0 60.0)
  end
  begin
     id 8 
     name rtibia
     direction -0.34202 -0.939693 0   
     length 7.3339   
     axis 0 0 -20   XYZ
    dof rx
    limits (-10.0 170.0)
 end
 begin
     id 9 
     name rfoot
     direction -0.120854 -0.332043 0.93549   
     length 2.23135  
     axis -90 -7.62852e-016 -20   XYZ
    dof rx rz
    limits (-45.0 90.0)
           (-20.0 70.0)
  end
  begin
     id 10 
     name rtoes
     direction -1.53563e-011 -4.21914e-011 1   
     length 1.10614   
     axis -90 -7.62852e-016 -20   XYZ
    dof rx
    limits (-90.0 20.0)
  end
  begin
     id 11 
     name lowerback
     direction 0.0319682 0.998615 -0.0417941   
     length 2.02718   
     axis 0 0 0   XYZ
    dof rx ry rz
    limits (-20.0 45.0)
           (-30.0 30.0)
           (-30.0 30.0)
  end
  begin
     id 12 
     name upperback
     direction 7.63181e-005 0.995808 0.0914691   
     length 1.97539   
     axis 0 0 0   XYZ
    dof rx ry rz
    limits (-20.0 45.0)
           (-30.0 30.0)
           (-30.0 30.0)
  end
  begin
     id 13 
     name thorax
     direction -0.016423 0.993627 0.111514   
     length 2.00349   
     axis 0 0 0   XYZ
    dof rx ry rz
    limits (-20.0 45.0)
           (-30.0 30.0)
           (-30.0 30.0)
  end
  begin
     id 14 
     name lowerneck
     direction -0.174763 0.981668 -0.0760716   
     length 1.71436   
     axis 0 0 0   XYZ
    dof rx ry rz
    limits (-20.0 45.0)
           (-30.0 30.0)
           (-30.0 30.0)
  end
  begin
     id 15 
     name upperneck
     direction 0.345458 0.934587 -0.0848868   
     length 1.72805   
     axis 0 0 0   XYZ
    dof rx ry rz
    limits (-20.0 45.0)
           (-30.0 30.0)
           (-30.0 30.0)
  end
  begin
     id 16
     name head
     direction 0.13001 0.989848 -0.0574291  
     length 1.767  
     axis 0 0 0   XYZ
    dof rx ry rz
    limits (-20.0 45.0)
           (-30.0 30.0)
           (-30.0 30.0)
  end
  begin
     id 17 
     name lclavicle
     direction 0.952951 0.290122 0.0878234  
     length 3.54654  
     axis 0 0 0   XYZ
    dof ry rz
    limits (-20.0 10.0)
           (0.0 20.0)
  end
  begin
     id 18 
     name lhumerus
     direction 1 -4.48957e-011 -4.56525e-028   
     length 5.19807   
     axis 180 -30 -90   XYZ
    dof rx ry rz
    limits (-60.0 90.0)
           (-90.0 90.0)
           (-90.0 90.0)
  end
  begin
     id 19
     name lradius
     direction 1 -4.48979e-011 -2.0317e-027   
     length 3.0937   
     axis 180 -30 -90   XYZ
    dof rx
    limits (-10.0 170.0)
  end
  begin
     id 20
     name lwrist
     direction 1 -4.48953e-011 -3.05809e-027   
     length 1.54685   
     axis 8.48514e-016 90 90   XYZ
    dof ry
    limits (-180.0 0.0)
 end
  begin
     id 21 
     name lhand
     direction 1 -4.48952e-011 -6.11639e-027   
     length 0.672632   
     axis 3.9013e-015 90 90   XYZ
    dof rx rz
    limits (-90.0 90.0)
           (-45.0 45.0)
  end
  begin
     id 22 
     name lfingers
     direction 1 -4.48925e-011 -1.22426e-026   
     length 0.542293   
     axis 7.80276e-015 90 90   XYZ
    dof rx
    limits (0.0 90.0)
  end
  begin
     id 23
     name lthumb
     direction 0.707107 -6.3486e-011 0.707107   
     length 0.778628   
     axis -90 45 5.37419e-014   XYZ
    dof rx rz
    limits (-45.0 45.0)
           (-45.0 45.0)
  end
  begin
     id 24 
     name rclavicle
     direction -0.960732 0.273675 -0.0457849   
     length 3.52079  
     axis 0 0 0   XYZ 
    dof ry rz
    limits (-10.0 20.0)
           (-20.0 0.0)
  end
  begin
     id 25 
     name rhumerus
     direction -1 -4.48976e-011 -1.63613e-027  
     length 5.45222   
     axis 180 30 90   XYZ
    dof rx ry rz
    limits (-90.0 60.0)
           (-90.0 90.0)
           (-90.0 90.0)
  end
  begin
     id 26 
     name rradius
     direction -1 -4.48957e-011 -7.00033e-028   
     length 3.01284   
     axis 180 30 90   XYZ
    dof rx
    limits (-10.0 170.0)
  end
  begin
     id 27 
     name rwrist
     direction -1 -4.48983e-011 -3.05543e-027   
     length 1.50642   
     axis 8.48514e-016 -90 -90   XYZ
    dof ry
    limits (-180.0 0.0)
  end
  begin
     id 28
     name rhand
     direction -1 -4.48984e-011 -6.11072e-027   
     length 0.622296   
     axis 3.9013e-015 -90 -90   XYZ
    dof rx rz
    limits (-90.0 90.0)
           (-45.0 45.0)
  end
  begin
     id 29
     name rfingers
     direction -1 -4.48865e-011 -1.22637e-026   
     length 0.501711   
     axis 7.80276e-015 -90 -90   XYZ
    dof rx
    limits (0.0 90.0)
  end
  begin
     id 30
     name rthumb
     direction -0.707107 -6.34932e-011 0.707107   
     length 0.72036   
     axis -90 -45 -5.37419e-014   XYZ
    dof rx rz
    limits (-45.0 45.0)
           (-45.0 45.0)
  end
:hierarchy
  begin
    root lhipjoint rhipjoint lowerback
    lhipjoint lfemur
    lfemur ltibia
    ltibia lfoot
    lfoot ltoes
    rhipjoint rfemur
    rfemur rtibia
    rtibia rfoot
    rfoot rtoes
    lowerback upperback
    upperback thorax
    thorax lowerneck lclavicle rclavicle
    lowerneck upperneck
    upperneck head
    lclavicle lhumerus
    lhumerus lradius
    lradius lwrist
    lwrist lhand lthumb
    lhand lfingers
    rclavicle rhumerus
    rhumerus rradius
    rradius rwrist
    rwrist rhand rthumb
    rhand rfingers
  end

#!OML:ASF H:\Not Pregnant\Project 1\Capture day 1\Session 1\non-pregnant.ASF
:FULLY-SPECIFIED
:DEGREES
64
root -5.72482 16.3167 34.6439 146.493 -82.3497 -131.953
lowerback -14.2165 3.09416 4.89596
upperback -5.18531 3.17305 -0.191287
thorax 2.75703 1.43451 -2.44076
lowerneck 15.8835 -8.96478 -29.6893
upperneck -9.25312 -18.9246 46.4452
head 3.67044 -12.6553 24.7906
rclavicle -2.80783e-014 1.23246e-014
rhumerus -47.141 19.6903 -94.5403
rradius 114.647
rwrist 20.8718
rhand 15.9286 14.6692
rfingers 7.12502
rthumb 40.725 -10.334
lclavicle -2.80783e-014 1.23246e-014
lhumerus -49.943 -24.4212 96.0133
lradius 115.653
lwrist 23.9512
lhand 35.9645 -2.86442
lfingers 7.12502
lthumb 58.9742 11.9495
rfemur -8.21227 -14.2207 26.5733
rtibia -7.95139e-015
rfoot -10.2725 21.3536
rtoes -9.44059
lfemur -19.3452 6.73856 -13.989
ltibia 17.84
lfoot -14.4533 -6.7922
ltoes -18.1124
65
root -5.72584 16.3166 34.6445 146.499 -82.3634 -131.951
lowerback -14.1611 3.09911 4.96587
upperback -5.21448 3.17618 -0.255547
thorax 2.70378 1.43353 -2.54977
lowerneck 15.837 -8.95816 -29.6027
upperneck -9.31823 -18.8797 46.5006
head 3.64097 -12.6404 24.82
rclavicle 1.83627e-014 2.38542e-015
rhumerus -47.2147 19.6574 -94.4195
rradius 114.996
rwrist 20.0585
rhand 15.8943 13.7354
rfingers 7.12502
rthumb 40.6928 -11.2778
lclavicle 1.83627e-014 2.38542e-015
lhumerus -49.8697 -24.2528 95.4613
lradius 115.838
lwrist 23.4812
lhand 35.6844 -3.22936
lfingers 7.12502
lthumb 58.7318 11.8168
rfemur -8.21745 -14.2323 26.5629
rtibia 8.74653e-015
rfoot -10.284 21.3481
rtoes -9.47328
lfemur -19.3538 6.76322 -14.0085
ltibia 17.8332
lfoot -14.4543 -6.83299
ltoes -18.0722
66
root -5.72694 16.3166 34.6455 146.511 -82.38 -131.952
lowerback -14.1278 3.09905 5.01375
upperback -5.23086 3.1736 -0.300299
thorax 2.67326 1.43071 -2.62574
lowerneck 15.7812 -8.95436 -29.5313
upperneck -9.39914 -18.8305 46.5471
head 3.60764 -12.6201 24.8442
rclavicle 6.53505e-015 5.1684e-015
rhumerus -47.2704 19.6709 -94.2876
rradius 115.371
rwrist 19.1039
rhand 15.8819 12.6863
rfingers 7.12502
rthumb 40.6811 -12.3306
lclavicle 6.53505e-015 5.1684e-015
lhumerus -49.7632 -24.0638 94.9007
lradius 116.035
lwrist 23.0421
lhand 35.4237 -3.57869
lfingers 7.12502
lthumb 58.5057 11.6801
rfemur -8.22626 -14.2461 26.5492
rtibia 8.74653e-015
rfoot -10.2888 21.3457
rtoes -9.47913
lfemur -19.3629 6.78261 -14.031
ltibia 17.8238
lfoot -14.4527 -6.8743
ltoes -18.0115
67
root -5.7281 16.3166 34.6469 146.533 -82.4009 -131.961
lowerback -14.1219 3.09383 5.0358
upperback -5.23182 3.16521 -0.323186
thorax 2.67069 1.42629 -2.66381
lowerneck 15.7166 -8.95227 -29.4746
upperneck -9.49858 -18.7726 46.5814
head 3.56666 -12.5916 24.8614
rclavicle 3.76448e-014 7.55382e-015
rhumerus -47.3075 19.7364 -94.1252
rradius 115.776
rwrist 18.0556
rhand 15.8848 11.5436
rfingers 7.12502
rthumb 40.6838 -13.4725
lclavicle 3.76448e-014 7.55382e-015
lhumerus -49.6209 -23.8562 94.3371
lradius 116.237
lwrist 22.6668
lhand 35.1775 -3.91904
lfingers 7.12502
lthumb 58.2917 11.5377
rfemur -8.23865 -14.263 26.5307
rtibia 4.77083e-015
rfoot -10.2895 21.3462
rtoes -9.47025
lfemur -19.3746 6.79715 -14.0583
ltibia 17.815
lfoot -14.45 -6.91636
ltoes -17.9358
68
root -5.72933 16.3167 34.6488 146.525 -82.4246 -131.939
lowerback -14.1399 3.07993 5.02747
upperback -5.21908 3.14668 -0.314026
thorax 2.69128 1.41804 -2.65169
lowerneck 15.6451 -8.9498 -29.4447
upperneck -9.61366 -18.7059 46.5998
head 3.51946 -12.5542 24.873
rclavicle 2.98177e-014 1.31198e-014
rhumerus -47.3207 19.8462 -93.9078
rradius 116.203
rwrist 16.9694
rhand 15.9248 10.3714
rfingers 7.12502
rthumb 40.7215 -14.6328
lclavicle 2.98177e-014 1.31198e-014
lhumerus -49.4495 -23.618 93.7821
lradius 116.449
lwrist 22.3677
lhand 34.9371 -4.24445
lfingers 7.12502
lthumb 58.0824 11.4028
rfemur -8.25202 -14.2851 26.5113
rtibia 1.90833e-014
rfoot -10.2808 21.3522
rtoes -9.42348
lfemur -19.3905 6.81711 -14.0881
ltibia 17.8117
lfoot -14.455 -6.96352
ltoes -17.8865
69
root -5.73049 16.3166 34.6503 146.463 -82.4358 -131.86
lowerback -14.1629 3.06173 5.01048
upperback -5.20605 3.1222 -0.282344
thorax 2.71281 1.40691 -2.61193
lowerneck 15.5738 -8.94323 -29.4389
upperneck -9.73124 -18.6349 46.6104
head 3.47148 -12.5127 24.8874
rclavicle -2.62147e-014 1.19271e-014
rhumerus -47.3242 19.9902 -93.6478
rradius 116.651
rwrist 15.9009
rhand 16.0023 9.20647
rfingers 7.12502
rthumb 40.7943 -15.7749
lclavicle -2.62147e-014 1.19271e-014
lhumerus -49.2709 -23.3579 93.2187
lradius 116.674
lwrist 22.1649
lhand 34.6989 -4.55029
lfingers 7.12502
lthumb 57.8746 11.2831
rfemur -8.26709 -14.2998 26.5095
rtibia 7.95139e-015
rfoot -10.2759 21.3563
rtoes -9.38877
lfemur -19.4111 6.83862 -14.1006
ltibia 17.815
lfoot -14.4644 -7.00121
ltoes -17.864
70
root -5.73167 16.3165 34.6516 146.356 -82.4445 -131.74
lowerback -14.18 3.03951 4.99126
upperback -5.19759 3.09246 -0.239922
thorax 2.72523 1.39283 -2.56092
lowerneck 15.5165 -8.93084 -29.4566
upperneck -9.8505 -18.5641 46.6206
head 3.42384 -12.4724 24.913
rclavicle 2.11954e-014 3.18055e-015
rhumerus -47.3217 20.1532 -93.3439
rradius 117.109
rwrist 14.9036
rhand 16.1084 8.09093
rfingers 7.12502
rthumb 40.8939 -16.8591
lclavicle 2.11954e-014 3.18055e-015
lhumerus -49.1029 -23.0962 92.6464
lradius 116.911
lwrist 21.9861
lhand 34.4048 -4.85623
lfingers 7.12502
lthumb 57.6175 11.2035
rfemur -8.27818 -14.3158 26.5135
rtibia -7.95139e-015
rfoot -10.2685 21.363
rtoes -9.33981
lfemur -19.4335 6.86453 -14.1067
ltibia 17.8274
lfoot -14.4804 -7.04212
ltoes -17.8478
71
root -5.73281 16.3163 34.6527 146.244 -82.4535 -131.615
lowerback -14.1852 3.01863 4.98401
upperback -5.19762 3.06389 -0.207111
thorax 2.72356 1.37865 -2.52719
lowerneck 15.4757 -8.91498 -29.473
upperneck -9.97194 -18.4948 46.6376
head 3.37418 -12.4362 24.9481
rclavicle -8.19987e-015 -5.1684e-015
rhumerus -47.3087 20.3086 -93.003
rradius 117.569
rwrist 14.0275
rhand 16.2454 7.09302
rfingers 7.12502
rthumb 41.0227 -17.8162
lclavicle -8.19987e-015 -5.1684e-015
lhumerus -48.9473 -22.8515 92.0411
lradius 117.165
lwrist 21.8585
lhand 34.0738 -5.15052
lfingers 7.12502
lthumb 57.3275 11.1594
rfemur -8.28767 -14.3323 26.5184
rtibia 2.22639e-014
rfoot -10.2613 21.3691
rtoes -9.29438
lfemur -19.4581 6.88693 -14.111
ltibia 17.8468
lfoot -14.5001 -7.07853
ltoes -17.8541
72
root -5.73378 16.316 34.6531 146.111 -82.4542 -131.472
lowerback -14.1754 3.00282 4.99162
upperback -5.20715 3.04124 -0.184369
thorax 2.70559 1.36663 -2.51214
lowerneck 15.4516 -8.89551 -29.4797
upperneck -10.0967 -18.4241 46.6611
head 3.31931 -12.4026 24.9905
rclavicle 4.27387e-015 1.35174e-014
rhumerus -47.2867 20.4409 -92.6358
rradius 118.016
rwrist 13.315
rhand 16.371 6.23775
rfingers 7.12502
rthumb 41.1406 -18.6338
lclavicle 4.27387e-015 1.35174e-014
lhumerus -48.8052 -22.6319 91.4004
lradius 117.437
lwrist 21.6947
lhand 33.6722 -5.45088
lfingers 7.12502
lthumb 56.9746 11.1562
rfemur -8.29541 -14.3426 26.5341
rtibia -2.38542e-015
rfoot -10.2635 21.3705
rtoes -9.28793
lfemur -19.4824 6.90483 -14.1029
ltibia 17.8698
lfoot -14.519 -7.1039
ltoes -17.8753
73
root -5.73465 16.3158 34.6533 146.026 -82.4584 -131.377
lowerback -14.1527 2.99391 5.00859
upperback -5.22635 3.02808 -0.182796
thorax 2.67279 1.3586 -2.52362
lowerneck 15.4469 -8.87612 -29.4588
upperneck -10.2318 -18.3517 46.6905
head 3.25371 -12.3717 25.0332
rclavicle 1.65985e-014 1.07344e-014
rhumerus -47.2543 20.537 -92.2421
rradius 118.437
rwrist 12.7887
rhand 16.4606 5.57477
rfingers 7.12502
rthumb 41.2246 -19.2698
lclavicle 1.65985e-014 1.07344e-014
lhumerus -48.671 -22.4487 90.7143
lradius 117.725
lwrist 21.5657
lhand 33.24 -5.74081
lfingers 7.12502
lthumb 56.5938 11.1786
rfemur -8.30364 -14.3521 26.5438
rtibia 3.73715e-014
rfoot -10.2713 21.3675
rtoes -9.30941
lfemur -19.5075 6.91487 -14.0998
ltibia 17.8947
lfoot -14.535 -7.12438
ltoes -17.886
74
root -5.7354 16.3156 34.6534 145.934 -82.4597 -131.275
lowerback -14.1271 2.99173 5.02202
upperback -5.24685 3.0247 -0.185325
thorax 2.63795 1.35536 -2.53587
lowerneck 15.4588 -8.86126 -29.4191
upperneck -10.3869 -18.2806 46.7233
head 3.17782 -12.344 25.0737
rclavicle 1.48592e-014 6.36111e-015
rhumerus -47.2044 20.6066 -91.7964
rradius 118.832
rwrist 12.4442
rhand 16.502 5.113
rfingers 7.12502
rthumb 41.2636 -19.719
lclavicle 1.48592e-014 6.36111e-015
lhumerus -48.5284 -22.2985 89.9944
lradius 118.027
lwrist 21.5357
lhand 32.8137 -6.00745
lfingers 7.12502
lthumb 56.2173 11.2125
rfemur -8.31155 -14.3595 26.5571
rtibia 6.36111e-015
rfoot -10.2795 21.3629
rtoes -9.33477
lfemur -19.5316 6.9186 -14.0913
ltibia 17.9211
lfoot -14.5499 -7.13717
ltoes -17.8952
75
root -5.73603 16.3154 34.6533 145.839 -82.4574 -131.169
lowerback -14.0978 2.99416 5.04056
upperback -5.27221 3.02709 -0.192957
thorax 2.59697 1.35462 -2.5556
lowerneck 15.4856 -8.84792 -29.3659
upperneck -10.5537 -18.2096 46.7573
head 3.09396 -12.3183 25.1132
rclavicle 2.03009e-014 -3.97569e-016
rhumerus -47.1469 20.6628 -91.3121
rradius 119.199
rwrist 12.2595
rhand 16.497 4.85812
rfingers 7.12502
rthumb 41.2589 -19.9754
lclavicle 2.03009e-014 -3.97569e-016
lhumerus -48.3854 -22.1781 89.2394
lradius 118.339
lwrist 21.577
lhand 32.3795 -6.27653
lfingers 7.12502
lthumb 55.8325 11.2423
rfemur -8.32116 -14.364 26.5742
rtibia 1.27222e-014
rfoot -10.2869 21.3583
rtoes -9.36076
lfemur -19.5558 6.9119 -14.0769
ltibia 17.946
lfoot -14.5589 -7.14046
ltoes -17.8812
76
root -5.73665 16.3152 34.6533 145.735 -82.4567 -131.056
lowerback -14.0656 2.99615 5.05194
upperback -5.30104 3.02981 -0.196969
thorax 2.5503 1.35384 -2.56766
lowerneck 15.5288 -8.8338 -29.3116
upperneck -10.7309 -18.1375 46.789
head 3.00261 -12.2934 25.1536
rclavicle 9.93923e-015 -7.95139e-015
rhumerus -47.0792 20.7055 -90.7815
rradius 119.536
rwrist 12.1868
rhand 16.4647 4.78955
rfingers 7.12502
rthumb 41.2285 -20.0538
lclavicle 9.93923e-015 -7.95139e-015
lhumerus -48.2473 -22.0838 88.4624
lradius 118.662
lwrist 21.6685
lhand 31.9246 -6.53961
lfingers 7.12502
lthumb 55.4284 11.2846
rfemur -8.32795 -14.3706 26.5897
rtibia -1.19271e-014
rfoot -10.2936 21.3545
rtoes -9.38095
lfemur -19.5774 6.90821 -14.064
ltibia 17.9692
lfoot -14.568 -7.1483
ltoes -17.8563
77
root -5.73719 16.3151 34.6533 145.648 -82.454 -130.956
lowerback -14.0305 2.99243 5.05992
upperback -5.33697 3.02504 -0.193674
thorax 2.49349 1.34884 -2.5717
lowerneck 15.579 -8.81353 -29.2708
upperneck -10.9065 -18.0604 46.8158
head 2.90872 -12.2656 25.1985
rclavicle -3.72721e-016 -2.3059e-014
rhumerus -47.0051 20.7709 -90.2135
rradius 119.853
rwrist 12.1681
rhand 16.4049 4.85901
rfingers 7.12502
rthumb 41.1724 -20.0023
lclavicle -3.72721e-016 -2.3059e-014
lhumerus -48.1218 -21.9964 87.6615
lradius 118.999
lwrist 21.7881
lhand 31.4508 -6.7942
lfingers 7.12502
lthumb 55.0063 11.3399
rfemur -8.33811 -14.3743 26.6059
rtibia 2.46493e-014
rfoot -10.2995 21.3514
rtoes -9.39444
lfemur -19.6004 6.90938 -14.052
ltibia 17.988
lfoot -14.5746 -7.15752
ltoes -17.8231
78
root -5.73778 16.315 34.6533 145.572 -82.4555 -130.871
lowerback -13.9936 2.97931 5.06061
upperback -5.37427 3.00844 -0.180471
thorax 2.43242 1.33789 -2.56335
lowerneck 15.6334 -8.78527 -29.2556
upperneck -11.0797 -17.9786 46.8391
head 2.81544 -12.2348 25.2536
rclavicle -2.52208e-014 -9.14409e-015
rhumerus -46.9241 20.8682 -89.6117
rradius 120.156
rwrist 12.17
rhand 16.3259 5.01354
rfingers 7.12502
rthumb 41.0982 -19.8715
lclavicle -2.52208e-014 -9.14409e-015
lhumerus -48.0063 -21.9129 86.8379
lradius 119.349
lwrist 21.9354
lhand 30.9567 -7.03732
lfingers 7.12502
lthumb 54.5649 11.4114
rfemur -8.34366 -14.3811 26.6152
rtibia -3.18055e-015
rfoot -10.3003 21.3513
rtoes -9.38339
lfemur -19.6177 6.92184 -14.0473
ltibia 18.001
lfoot -14.5805 -7.18195
ltoes -17.7723
